<svg xmlns="http://www.w3.org/2000/svg" viewBox="0 0 64 64"><defs><linearGradient id="g" x1="0" y1="64" x2="0" y2="0" gradientUnits="userSpaceOnUse"><stop offset="0" stop-color="#21346B"/><stop offset="0.35" stop-color="#f45a2f"/><stop offset="1" stop-color="#2D9CDB"/></linearGradient></defs><path fill="url(#g)" d="M14 4h24l12 12v18.7A12 12 0 0 0 30 56H14a4 4 0 0 1-4-4V8a4 4 0 0 1 4-4Z"/><path fill="url(#g)" d="M38 4l12 12H42a4 4 0 0 1-4-4Z"/><rect x="18" y="16" width="16" height="4" rx="2" fill="#fff"/><rect x="18" y="25" width="22" height="4" rx="2" fill="#fff"/><rect x="18" y="34" width="12" height="4" rx="2" fill="#fff"/><circle cx="45" cy="46" r="11" fill="url(#g)" stroke="#fff" stroke-width="3"/><path stroke="#fff" stroke-width="3.4" stroke-linecap="round" stroke-linejoin="round" fill="none" d="M39.5 46.5 43.5 50l7.5-8"/><path fill="url(#g)" d="M39 55 36 64l5-3 4 3 2-7z"/></svg>