<svg xmlns="http://www.w3.org/2000/svg" xmlns:xlink="http://www.w3.org/1999/xlink" viewBox="0 0 79.55 79.55"><defs><style>.cls-1{fill:url(#linear-gradient);}</style><linearGradient id="linear-gradient" x1="-11.29" y1="39.77" x2="93.32" y2="39.77" gradientUnits="userSpaceOnUse"><stop offset="0.11" stop-color="#9028ad"/><stop offset="0.73" stop-color="#6228ad"/></linearGradient></defs><title>allowance &amp;amp; deduction</title><g id="Layer_2" data-name="Layer 2"><g id="Layer_3" data-name="Layer 3"><path class="cls-1" d="M39.77,0A39.78,39.78,0,1,0,79.55,39.77,39.78,39.78,0,0,0,39.77,0ZM36.35,29.36A1.48,1.48,0,0,1,35.26,29,2.85,2.85,0,0,0,36,27.08c0-1.1-.68-1.66-2-1.66a2.41,2.41,0,0,0-1.91.75,4.11,4.11,0,0,0-.92,1.92,19.35,19.35,0,0,0-.36,2.9l-.06,1.22h2.1c.34,0,.8,0,1.37,0l1.38-.06-.07.74a.88.88,0,0,1-.25.56.73.73,0,0,1-.53.22H30.65L29.7,51a9.14,9.14,0,0,0,0,1.05,9.31,9.31,0,0,0,.28,2.58,2.47,2.47,0,0,1-1.6.61,1.39,1.39,0,0,1-1.07-.41,1.36,1.36,0,0,1-.35-1.08l1-20.16h-.48a16.34,16.34,0,0,0-2,.1l.07-.78a.73.73,0,0,1,.78-.74H28l.07-1.66A7.76,7.76,0,0,1,29.58,26q1.37-1.76,4.49-1.76a6.14,6.14,0,0,1,3.18.71,2.23,2.23,0,0,1,1.17,2,2.33,2.33,0,0,1-.65,1.73A2,2,0,0,1,36.35,29.36ZM53.48,49.28a2.61,2.61,0,0,1-1.8.61,2.67,2.67,0,0,1-1.93-.72,8.73,8.73,0,0,1-1.56-2.24l-2.55-4.51L41.37,49a1.57,1.57,0,0,1-1.39.81c-.93,0-1.45-.55-1.56-1.66a3.61,3.61,0,0,0,1.32-.83,12.45,12.45,0,0,0,1.36-1.65l3.56-5-3-5.19a4.7,4.7,0,0,0-.75-1,1.12,1.12,0,0,0-.75-.3.91.91,0,0,0-.71.3,1.05,1.05,0,0,0-.27.71,1.59,1.59,0,0,1-.8-.54,1.41,1.41,0,0,1-.29-.88,1.89,1.89,0,0,1,.68-1.43,2.71,2.71,0,0,1,1.87-.61,2.59,2.59,0,0,1,1.85.66,9.67,9.67,0,0,1,1.57,2.3l2.28,4.07,4-6.14a1.52,1.52,0,0,1,1.42-.89,1.42,1.42,0,0,1,1.07.41,2.2,2.2,0,0,1,.49,1.29,3.3,3.3,0,0,0-1.32.88,17.11,17.11,0,0,0-1.33,1.63l-3.39,4.55,3.26,5.66q.7,1.29,1.56,1.29a.79.79,0,0,0,.66-.32,1.1,1.1,0,0,0,.26-.69,1.52,1.52,0,0,1,.78.52,1.48,1.48,0,0,1,.3.93A1.82,1.82,0,0,1,53.48,49.28Z"/></g></g></svg>